<svg xmlns="http://www.w3.org/2000/svg" width="32" height="32" viewBox="0 0 32 32" version="1.1"><path d="" stroke="none" fill="#080404" fill-rule="evenodd"/><path d="M 16 2 L 16 4 14 4 L 12 4 12 10 L 12 16 10 16 L 8 16 8 18 L 8 20 6 20 L 4 20 4 22 L 4 24 2 24 L 0 24 0 28 L 0 32 4 32 L 8 32 8 30 L 8 28 10 28 L 12 28 12 26 L 12 24 14 24 L 16 24 16 22 L 16 20 22 20 L 28 20 28 18 L 28 16 30 16 L 32 16 32 12 L 32 8 30 8 L 28 8 28 10 L 28 12 24 12 L 20 12 20 8 L 20 4 22 4 L 24 4 24 2 L 24 0 20 0 L 16 0 16 2 M 4 26 L 4 28 6 28 L 8 28 8 26 L 8 24 6 24 L 4 24 4 26" stroke="none" fill="#040404" fill-rule="evenodd"/></svg>