<?xml version="1.0" standalone="no"?>
<!DOCTYPE svg PUBLIC "-//W3C//DTD SVG 20010904//EN"
 "http://www.w3.org/TR/2001/REC-SVG-20010904/DTD/svg10.dtd">
<svg version="1.0" xmlns="http://www.w3.org/2000/svg"
 width="64.000000pt" height="64.000000pt" viewBox="0 0 64.000000 64.000000"
 preserveAspectRatio="xMidYMid meet">
<metadata>
Created by potrace 1.16, written by Peter Selinger 2001-2019
</metadata>
<g transform="translate(0.000000,64.000000) scale(0.100000,-0.100000)"
fill="#000000" stroke="none">
<path d="M0 560 l0 -80 80 0 80 0 0 40 0 40 160 0 160 0 0 -40 0 -40 80 0 80
0 0 80 0 80 -320 0 -320 0 0 -80z"/>
<path d="M240 440 l0 -40 -40 0 -40 0 0 -40 0 -40 -40 0 -40 0 0 -40 0 -40 80
0 80 0 1 -77 c0 -43 0 -97 -1 -121 l-2 -42 82 0 82 0 -2 42 c-1 24 -1 78 -1
121 l1 77 80 0 80 0 0 40 0 40 -40 0 -40 0 0 40 0 40 -40 0 -40 0 0 40 0 40
-80 0 -80 0 0 -40z"/>
</g>
</svg>
