<?xml version="1.0" standalone="no"?>
<!DOCTYPE svg PUBLIC "-//W3C//DTD SVG 20010904//EN"
 "http://www.w3.org/TR/2001/REC-SVG-20010904/DTD/svg10.dtd">
<svg version="1.0" xmlns="http://www.w3.org/2000/svg"
 width="64.000000pt" height="64.000000pt" viewBox="0 0 64.000000 64.000000"
 preserveAspectRatio="xMidYMid meet">
<metadata>
Created by potrace 1.16, written by Peter Selinger 2001-2019
</metadata>
<g transform="translate(0.000000,64.000000) scale(0.100000,-0.100000)"
fill="#000000" stroke="none">
<path d="M240 520 l0 -120 -80 0 -80 0 0 -40 0 -40 40 0 40 0 0 -40 0 -40 40
0 40 0 0 -40 0 -40 80 0 80 0 0 40 0 40 40 0 40 0 0 40 0 40 40 0 40 0 0 40 0
40 -80 0 -80 0 0 120 0 120 -80 0 -80 0 0 -120z"/>
<path d="M0 80 l0 -80 320 0 320 0 0 80 0 80 -80 0 -80 0 0 -40 0 -40 -160 0
-160 0 0 40 0 40 -80 0 -80 0 0 -80z"/>
</g>
</svg>
