<svg id="svg" version="1.1" xmlns="http://www.w3.org/2000/svg" xmlns:xlink="http://www.w3.org/1999/xlink" width="400" height="400" viewBox="0, 0, 400,400"><g id="svgg"><path id="path0" d="M102.662 52.731 C 102.063 53.394,102.000 55.559,102.000 75.547 C 102.000 96.463,101.960 97.711,101.239 99.123 C 99.738 102.066,100.330 102.000,75.448 102.000 C 54.445 102.000,53.290 102.037,52.656 102.739 C 51.848 103.630,51.823 293.892,52.630 296.177 C 53.299 298.074,53.977 298.134,76.400 298.279 C 100.054 298.431,99.770 298.397,101.230 301.258 C 101.963 302.695,102.000 303.842,102.000 324.922 C 102.000 345.876,102.040 347.112,102.731 347.738 C 103.928 348.820,296.758 348.752,297.738 347.669 C 298.337 347.006,298.400 344.843,298.400 324.882 C 298.400 300.078,298.335 300.662,301.277 299.161 C 302.689 298.440,303.938 298.400,324.922 298.400 C 345.876 298.400,347.112 298.360,347.738 297.669 C 348.820 296.472,348.752 103.642,347.669 102.662 C 347.006 102.063,344.841 102.000,324.853 102.000 C 303.937 102.000,302.689 101.960,301.277 101.239 C 298.334 99.738,298.400 100.330,298.400 75.448 C 298.400 54.523,298.360 53.288,297.669 52.662 C 296.472 51.580,103.642 51.648,102.662 52.731 M299.123 149.161 C 302.206 150.734,302.000 147.074,302.000 200.200 C 302.000 253.326,302.206 249.666,299.123 251.239 C 296.899 252.374,103.750 252.440,101.374 251.307 C 98.176 249.782,98.398 253.617,98.417 200.116 C 98.436 146.973,98.225 150.764,101.241 149.158 C 103.421 147.996,296.846 147.999,299.123 149.161 " stroke="none" fill="#fcfcfc" fill-rule="evenodd"></path><path id="path1" d="M96.800 23.400 L 96.800 46.800 72.280 46.800 C 53.742 46.800,47.643 46.917,47.280 47.280 C 46.917 47.643,46.800 53.742,46.800 72.280 L 46.800 96.800 23.400 96.800 L 0.000 96.800 0.000 200.000 L 0.000 303.200 23.400 303.200 L 46.800 303.200 46.800 327.720 C 46.800 346.258,46.917 352.357,47.280 352.720 C 47.643 353.083,53.742 353.200,72.280 353.200 L 96.800 353.200 96.800 376.600 L 96.800 400.000 200.000 400.000 L 303.200 400.000 303.200 376.603 L 303.200 353.206 328.100 353.103 L 353.000 353.000 353.103 328.100 L 353.206 303.200 376.603 303.200 L 400.000 303.200 400.000 200.000 L 400.000 96.800 376.600 96.800 L 353.200 96.800 353.200 72.280 C 353.200 53.742,353.083 47.643,352.720 47.280 C 352.357 46.917,346.258 46.800,327.720 46.800 L 303.200 46.800 303.200 23.400 L 303.200 0.000 200.000 0.000 L 96.800 0.000 96.800 23.400 M300.889 49.511 L 301.800 50.422 301.915 73.763 C 302.022 95.430,302.081 97.149,302.733 97.739 C 303.355 98.302,306.104 98.388,326.707 98.487 L 349.978 98.600 350.889 99.511 L 351.800 100.422 351.800 200.200 L 351.800 299.978 350.889 300.889 L 349.978 301.800 326.704 301.916 C 306.146 302.018,303.347 302.105,302.729 302.664 C 302.082 303.250,302.022 305.012,301.915 326.637 L 301.800 349.978 300.889 350.889 L 299.978 351.800 200.200 351.800 L 100.422 351.800 99.511 350.889 L 98.600 349.978 98.487 326.707 C 98.389 306.338,98.297 303.350,97.754 302.749 C 97.184 302.120,95.258 302.051,74.466 301.915 C 50.171 301.756,49.998 301.741,49.093 299.707 C 48.178 297.651,48.396 100.233,49.314 99.314 C 49.981 98.647,51.587 98.593,73.496 98.488 C 94.323 98.388,97.044 98.303,97.670 97.737 C 98.326 97.143,98.384 95.459,98.488 73.610 C 98.607 48.600,98.569 49.062,100.529 48.677 C 101.008 48.583,146.080 48.527,200.689 48.553 L 299.978 48.600 300.889 49.511 M102.662 152.731 C 101.583 153.924,101.651 246.760,102.731 247.738 C 103.928 248.820,296.758 248.752,297.738 247.669 C 298.817 246.476,298.749 153.640,297.669 152.662 C 296.472 151.580,103.642 151.648,102.662 152.731 " stroke="none" fill="#040404" fill-rule="evenodd"></path><path id="path2" d="" stroke="none" fill="#c010080" fill-rule="evenodd"></path><path id="path3" d="M99.782 49.782 L 98.800 50.764 98.800 73.912 L 98.800 97.061 97.874 97.930 L 96.948 98.800 73.856 98.800 L 50.764 98.800 49.782 99.782 L 48.800 100.764 48.823 199.282 C 48.840 274.519,48.958 298.128,49.323 299.188 C 50.120 301.507,50.423 301.535,75.030 301.569 L 97.061 301.600 97.930 302.526 L 98.800 303.452 98.800 326.481 C 98.800 348.561,98.832 349.550,99.565 350.456 L 100.329 351.400 200.150 351.400 C 295.435 351.400,300.004 351.368,300.686 350.686 C 301.353 350.019,301.407 348.421,301.509 326.647 L 301.619 303.322 302.525 302.471 C 303.425 301.625,303.587 301.618,326.702 301.510 C 348.423 301.407,350.019 301.352,350.686 300.686 C 351.368 300.004,351.400 295.435,351.400 200.150 L 351.400 100.329 350.456 99.565 C 349.550 98.832,348.560 98.800,326.425 98.800 L 303.339 98.800 302.479 97.884 C 301.622 96.972,301.619 96.889,301.510 73.649 L 301.400 50.329 300.456 49.564 C 299.532 48.816,297.377 48.800,200.138 48.800 L 100.764 48.800 99.782 49.782 M298.400 52.000 C 299.181 52.781,299.200 53.334,299.201 74.900 C 299.203 96.247,299.230 97.044,299.998 98.304 C 301.835 101.318,300.772 101.197,325.500 101.199 C 347.066 101.200,347.619 101.219,348.400 102.000 C 349.664 103.264,349.664 297.136,348.400 298.400 C 347.619 299.181,347.066 299.200,325.500 299.201 C 304.153 299.203,303.356 299.230,302.096 299.998 C 299.082 301.835,299.203 300.772,299.201 325.500 C 299.200 347.066,299.181 347.619,298.400 348.400 C 297.136 349.664,103.264 349.664,102.000 348.400 C 101.219 347.619,101.200 347.066,101.199 325.500 C 101.197 304.300,101.165 303.348,100.418 302.122 C 98.688 299.286,99.848 299.422,75.527 299.200 L 53.617 299.000 52.509 297.891 L 51.400 296.782 51.294 199.797 C 51.189 103.050,51.191 102.809,51.994 102.006 C 52.782 101.218,53.283 101.200,74.900 101.199 C 96.247 101.197,97.044 101.170,98.304 100.402 C 101.318 98.565,101.197 99.628,101.199 74.900 C 101.200 53.334,101.219 52.781,102.000 52.000 C 103.264 50.736,297.136 50.736,298.400 52.000 M102.096 149.998 C 98.957 151.912,99.203 147.645,99.203 200.200 C 99.203 252.755,98.957 248.488,102.096 250.402 C 104.152 251.656,296.248 251.656,298.304 250.402 C 301.443 248.488,301.197 252.755,301.197 200.200 C 301.197 147.645,301.443 151.912,298.304 149.998 C 296.248 148.744,104.152 148.744,102.096 149.998 M297.874 152.470 L 298.800 153.339 298.800 200.144 L 298.800 246.948 297.930 247.874 L 297.061 248.800 200.256 248.800 L 103.452 248.800 102.526 247.930 L 101.600 247.061 101.600 200.256 L 101.600 153.452 102.470 152.526 L 103.339 151.600 200.144 151.600 L 296.948 151.600 297.874 152.470 " stroke="none" fill="#ffffff" fill-rule="evenodd"></path><path id="path4" d="M150.500 48.700 C 177.725 48.757,222.275 48.757,249.500 48.700 C 276.725 48.643,254.450 48.597,200.000 48.597 C 145.550 48.597,123.275 48.643,150.500 48.700 M99.211 49.387 C 98.381 50.387,98.950 50.651,99.886 49.700 C 100.456 49.121,100.580 48.800,100.235 48.800 C 99.939 48.800,99.479 49.064,99.211 49.387 M300.311 49.423 C 300.800 49.765,301.214 50.350,301.232 50.723 C 301.253 51.175,301.333 51.226,301.473 50.877 C 301.703 50.302,300.529 48.800,299.849 48.800 C 299.614 48.800,299.822 49.080,300.311 49.423 M98.497 74.038 C 98.406 95.737,98.358 97.114,97.672 97.735 C 97.017 98.327,94.646 98.404,73.972 98.500 L 51.000 98.607 74.030 98.703 L 97.061 98.800 97.934 97.871 L 98.807 96.941 98.700 73.971 L 98.593 51.000 98.497 74.038 M301.697 74.430 L 301.600 97.061 302.529 97.934 L 303.459 98.807 326.229 98.700 L 349.000 98.593 326.162 98.497 C 304.657 98.406,303.286 98.358,302.665 97.672 C 302.073 97.018,301.996 94.674,301.900 74.372 L 301.793 51.800 301.697 74.430 M49.211 99.387 C 48.381 100.387,48.950 100.651,49.886 99.700 C 50.456 99.121,50.580 98.800,50.235 98.800 C 49.939 98.800,49.479 99.064,49.211 99.387 M350.311 99.423 C 350.800 99.765,351.214 100.350,351.232 100.723 C 351.253 101.175,351.333 101.226,351.473 100.877 C 351.703 100.302,350.529 98.800,349.849 98.800 C 349.614 98.800,349.822 99.080,350.311 99.423 M48.597 198.000 C 48.597 251.350,48.643 273.175,48.700 246.500 C 48.757 219.825,48.757 176.175,48.700 149.500 C 48.643 122.825,48.597 144.650,48.597 198.000 M351.797 200.200 C 351.797 254.320,351.843 276.401,351.900 249.268 C 351.957 222.135,351.957 177.855,351.900 150.868 C 351.843 123.881,351.797 146.080,351.797 200.200 M102.470 152.526 L 101.600 153.452 101.600 200.256 L 101.600 247.061 102.526 247.930 L 103.452 248.800 200.256 248.800 L 297.061 248.800 297.930 247.874 L 298.800 246.948 298.800 200.144 L 298.800 153.339 297.874 152.470 L 296.948 151.600 200.144 151.600 L 103.339 151.600 102.470 152.526 M297.669 152.662 C 298.749 153.640,298.817 246.476,297.738 247.669 C 296.758 248.752,103.928 248.820,102.731 247.738 C 101.651 246.760,101.583 153.924,102.662 152.731 C 103.642 151.648,296.472 151.580,297.669 152.662 M351.108 299.909 C 350.980 300.398,350.453 300.967,349.938 301.174 C 349.353 301.408,349.240 301.559,349.638 301.575 C 350.451 301.607,351.736 300.207,351.511 299.533 C 351.414 299.243,351.240 299.406,351.108 299.909 M49.200 299.875 C 49.200 300.569,50.181 301.181,51.638 301.396 L 53.000 301.597 51.600 301.173 C 50.830 300.940,49.975 300.456,49.700 300.098 C 49.425 299.740,49.200 299.639,49.200 299.875 M76.173 301.900 C 94.799 301.996,97.020 302.075,97.673 302.666 C 98.357 303.285,98.406 304.661,98.497 326.162 L 98.593 349.000 98.700 326.229 L 98.807 303.459 97.934 302.529 L 97.061 301.600 76.230 301.696 L 55.400 301.793 76.173 301.900 M302.466 302.529 L 301.593 303.459 301.700 326.029 L 301.807 348.600 301.903 325.962 C 301.994 304.650,302.043 303.285,302.728 302.665 C 303.382 302.073,305.726 301.996,326.028 301.900 L 348.600 301.793 325.970 301.697 L 303.339 301.600 302.466 302.529 M301.108 349.909 C 300.980 350.398,300.453 350.967,299.938 351.174 C 299.353 351.408,299.240 351.559,299.638 351.575 C 300.451 351.607,301.736 350.207,301.511 349.533 C 301.414 349.243,301.240 349.406,301.108 349.909 M98.800 349.849 C 98.800 350.529,100.302 351.703,100.877 351.473 C 101.226 351.333,101.175 351.253,100.723 351.232 C 100.350 351.214,99.765 350.800,99.423 350.311 C 99.080 349.822,98.800 349.614,98.800 349.849 M151.132 351.900 C 178.265 351.957,222.545 351.957,249.532 351.900 C 276.519 351.843,254.320 351.797,200.200 351.797 C 146.080 351.797,123.999 351.843,151.132 351.900 " stroke="none" fill="#400484" fill-rule="evenodd"></path></g></svg>