<?xml version="1.0" encoding="UTF-8"?>
<svg version="1.1" xmlns="http://www.w3.org/2000/svg" width="32" height="32">
<path d="M0 0 C2.64 0 5.28 0 8 0 C8 1.32 8 2.64 8 4 C6.68 4 5.36 4 4 4 C4 9.28 4 14.56 4 20 C7.96 20 11.92 20 16 20 C16 17.36 16 14.72 16 12 C18.64 12 21.28 12 24 12 C24 9.36 24 6.72 24 4 C22.68 4 21.36 4 20 4 C20 2.68 20 1.36 20 0 C22.64 0 25.28 0 28 0 C28 3.96 28 7.92 28 12 C29.32 12 30.64 12 32 12 C32 17.28 32 22.56 32 28 C26.72 28 21.44 28 16 28 C16 26.68 16 25.36 16 24 C10.72 24 5.44 24 0 24 C0 16.08 0 8.16 0 0 Z M20 16 C20 18.64 20 21.28 20 24 C22.64 24 25.28 24 28 24 C28 21.36 28 18.72 28 16 C25.36 16 22.72 16 20 16 Z " fill="#000000" transform="translate(0,4)"/>
<path d="M0 0 C3.96 0 7.92 0 12 0 C12 1.32 12 2.64 12 4 C8.04 4 4.08 4 0 4 C0 2.68 0 1.36 0 0 Z " fill="#000000" transform="translate(8,8)"/>
<path d="M0 0 C3.96 0 7.92 0 12 0 C12 1.32 12 2.64 12 4 C8.04 4 4.08 4 0 4 C0 2.68 0 1.36 0 0 Z " fill="#000000" transform="translate(8,0)"/>
</svg>
