<?xml version="1.0" encoding="UTF-8"?>
<svg version="1.1" xmlns="http://www.w3.org/2000/svg" width="32" height="32">
<path d="M0 0 C6.6 0 13.2 0 20 0 C20 1.32 20 2.64 20 4 C21.32 4 22.64 4 24 4 C24 10.6 24 17.2 24 24 C22.68 24 21.36 24 20 24 C20 26.64 20 29.28 20 32 C18.68 32 17.36 32 16 32 C16 30.68 16 29.36 16 28 C14.68 28 13.36 28 12 28 C12 29.32 12 30.64 12 32 C10.68 32 9.36 32 8 32 C8 30.68 8 29.36 8 28 C6.68 28 5.36 28 4 28 C4 29.32 4 30.64 4 32 C2.68 32 1.36 32 0 32 C0 29.36 0 26.72 0 24 C-1.32 24 -2.64 24 -4 24 C-4 17.4 -4 10.8 -4 4 C-2.68 4 -1.36 4 0 4 C0 2.68 0 1.36 0 0 Z M0 8 C0 10.64 0 13.28 0 16 C2.64 16 5.28 16 8 16 C8 13.36 8 10.72 8 8 C5.36 8 2.72 8 0 8 Z M12 8 C12 10.64 12 13.28 12 16 C14.64 16 17.28 16 20 16 C20 13.36 20 10.72 20 8 C17.36 8 14.72 8 12 8 Z M8 16 C8 17.32 8 18.64 8 20 C9.32 20 10.64 20 12 20 C12 18.68 12 17.36 12 16 C10.68 16 9.36 16 8 16 Z " fill="#000000" transform="translate(4,0)"/>
</svg>
