<?xml version="1.0" encoding="UTF-8"?>
<!DOCTYPE svg PUBLIC "-//W3C//DTD SVG 1.1//EN" "http://www.w3.org/Graphics/SVG/1.1/DTD/svg11.dtd">
<svg xmlns="http://www.w3.org/2000/svg" version="1.1" width="80px" height="40px" style="shape-rendering:geometricPrecision; text-rendering:geometricPrecision; image-rendering:optimizeQuality; fill-rule:evenodd; clip-rule:evenodd" xmlns:xlink="http://www.w3.org/1999/xlink">
<g><path style="opacity:1" fill="#a9a8aa" d="M -0.5,-0.5 C 2.16667,-0.5 4.83333,-0.5 7.5,-0.5C 7.5,2.16667 7.5,4.83333 7.5,7.5C 4.83333,7.5 2.16667,7.5 -0.5,7.5C -0.5,4.83333 -0.5,2.16667 -0.5,-0.5 Z"/></g>
<g><path style="opacity:1" fill="#d1cfd2" d="M 7.5,-0.5 C 10.1667,-0.5 12.8333,-0.5 15.5,-0.5C 15.5,2.16667 15.5,4.83333 15.5,7.5C 12.8333,7.5 10.1667,7.5 7.5,7.5C 7.5,4.83333 7.5,2.16667 7.5,-0.5 Z"/></g>
<g><path style="opacity:1" fill="#a9a8aa" d="M 15.5,-0.5 C 18.1667,-0.5 20.8333,-0.5 23.5,-0.5C 23.5,2.16667 23.5,4.83333 23.5,7.5C 20.8333,7.5 18.1667,7.5 15.5,7.5C 15.5,4.83333 15.5,2.16667 15.5,-0.5 Z"/></g>
<g><path style="opacity:1" fill="#d1cfd2" d="M 23.5,-0.5 C 26.1667,-0.5 28.8333,-0.5 31.5,-0.5C 31.5,2.16667 31.5,4.83333 31.5,7.5C 28.8333,7.5 26.1667,7.5 23.5,7.5C 23.5,4.83333 23.5,2.16667 23.5,-0.5 Z"/></g>
<g><path style="opacity:1" fill="#a9a8aa" d="M 31.5,-0.5 C 34.1667,-0.5 36.8333,-0.5 39.5,-0.5C 39.5,2.16667 39.5,4.83333 39.5,7.5C 36.8333,7.5 34.1667,7.5 31.5,7.5C 31.5,4.83333 31.5,2.16667 31.5,-0.5 Z"/></g>
<g><path style="opacity:1" fill="#d1cfd2" d="M 39.5,-0.5 C 42.1667,-0.5 44.8333,-0.5 47.5,-0.5C 47.5,2.16667 47.5,4.83333 47.5,7.5C 44.8333,7.5 42.1667,7.5 39.5,7.5C 39.5,4.83333 39.5,2.16667 39.5,-0.5 Z"/></g>
<g><path style="opacity:1" fill="#a9a8aa" d="M 47.5,-0.5 C 50.1667,-0.5 52.8333,-0.5 55.5,-0.5C 55.5,2.16667 55.5,4.83333 55.5,7.5C 52.8333,7.5 50.1667,7.5 47.5,7.5C 47.5,4.83333 47.5,2.16667 47.5,-0.5 Z"/></g>
<g><path style="opacity:1" fill="#d1cfd2" d="M 55.5,-0.5 C 58.1667,-0.5 60.8333,-0.5 63.5,-0.5C 63.5,2.16667 63.5,4.83333 63.5,7.5C 60.8333,7.5 58.1667,7.5 55.5,7.5C 55.5,4.83333 55.5,2.16667 55.5,-0.5 Z"/></g>
<g><path style="opacity:1" fill="#a9a8aa" d="M 63.5,-0.5 C 66.1667,-0.5 68.8333,-0.5 71.5,-0.5C 71.5,2.16667 71.5,4.83333 71.5,7.5C 68.8333,7.5 66.1667,7.5 63.5,7.5C 63.5,4.83333 63.5,2.16667 63.5,-0.5 Z"/></g>
<g><path style="opacity:1" fill="#d1cfd2" d="M 71.5,-0.5 C 74.1667,-0.5 76.8333,-0.5 79.5,-0.5C 79.5,2.16667 79.5,4.83333 79.5,7.5C 76.8333,7.5 74.1667,7.5 71.5,7.5C 71.5,4.83333 71.5,2.16667 71.5,-0.5 Z"/></g>
<g><path style="opacity:1" fill="#d1cfd2" d="M -0.5,7.5 C 2.16667,7.5 4.83333,7.5 7.5,7.5C 7.5,10.1667 7.5,12.8333 7.5,15.5C 4.83333,15.5 2.16667,15.5 -0.5,15.5C -0.5,12.8333 -0.5,10.1667 -0.5,7.5 Z"/></g>
<g><path style="opacity:1" fill="#a9a8aa" d="M 7.5,7.5 C 10.1667,7.5 12.8333,7.5 15.5,7.5C 15.5,10.1667 15.5,12.8333 15.5,15.5C 12.8333,15.5 10.1667,15.5 7.5,15.5C 7.5,12.8333 7.5,10.1667 7.5,7.5 Z"/></g>
<g><path style="opacity:1" fill="#d1cfd2" d="M 15.5,7.5 C 18.1667,7.5 20.8333,7.5 23.5,7.5C 23.5,10.1667 23.5,12.8333 23.5,15.5C 20.8333,15.5 18.1667,15.5 15.5,15.5C 15.5,12.8333 15.5,10.1667 15.5,7.5 Z"/></g>
<g><path style="opacity:1" fill="#a9a8aa" d="M 23.5,7.5 C 26.1667,7.5 28.8333,7.5 31.5,7.5C 31.5,10.1667 31.5,12.8333 31.5,15.5C 28.8333,15.5 26.1667,15.5 23.5,15.5C 23.5,12.8333 23.5,10.1667 23.5,7.5 Z"/></g>
<g><path style="opacity:1" fill="#d1cfd2" d="M 31.5,7.5 C 34.1667,7.5 36.8333,7.5 39.5,7.5C 39.5,10.1667 39.5,12.8333 39.5,15.5C 36.8333,15.5 34.1667,15.5 31.5,15.5C 31.5,12.8333 31.5,10.1667 31.5,7.5 Z"/></g>
<g><path style="opacity:1" fill="#a9a8aa" d="M 39.5,7.5 C 42.1667,7.5 44.8333,7.5 47.5,7.5C 47.5,10.1667 47.5,12.8333 47.5,15.5C 44.8333,15.5 42.1667,15.5 39.5,15.5C 39.5,12.8333 39.5,10.1667 39.5,7.5 Z"/></g>
<g><path style="opacity:1" fill="#d1cfd2" d="M 47.5,7.5 C 50.1667,7.5 52.8333,7.5 55.5,7.5C 55.5,10.1667 55.5,12.8333 55.5,15.5C 52.8333,15.5 50.1667,15.5 47.5,15.5C 47.5,12.8333 47.5,10.1667 47.5,7.5 Z"/></g>
<g><path style="opacity:1" fill="#a9a8aa" d="M 55.5,7.5 C 58.1667,7.5 60.8333,7.5 63.5,7.5C 63.5,10.1667 63.5,12.8333 63.5,15.5C 60.8333,15.5 58.1667,15.5 55.5,15.5C 55.5,12.8333 55.5,10.1667 55.5,7.5 Z"/></g>
<g><path style="opacity:1" fill="#d1cfd2" d="M 63.5,7.5 C 66.1667,7.5 68.8333,7.5 71.5,7.5C 71.5,10.1667 71.5,12.8333 71.5,15.5C 68.8333,15.5 66.1667,15.5 63.5,15.5C 63.5,12.8333 63.5,10.1667 63.5,7.5 Z"/></g>
<g><path style="opacity:1" fill="#a9a8aa" d="M 71.5,7.5 C 74.1667,7.5 76.8333,7.5 79.5,7.5C 79.5,10.1667 79.5,12.8333 79.5,15.5C 76.8333,15.5 74.1667,15.5 71.5,15.5C 71.5,12.8333 71.5,10.1667 71.5,7.5 Z"/></g>
<g><path style="opacity:1" fill="#a9a8aa" d="M -0.5,15.5 C 2.16667,15.5 4.83333,15.5 7.5,15.5C 7.5,18.1667 7.5,20.8333 7.5,23.5C 4.83333,23.5 2.16667,23.5 -0.5,23.5C -0.5,20.8333 -0.5,18.1667 -0.5,15.5 Z"/></g>
<g><path style="opacity:1" fill="#d1cfd2" d="M 7.5,15.5 C 10.1667,15.5 12.8333,15.5 15.5,15.5C 15.5,18.1667 15.5,20.8333 15.5,23.5C 12.8333,23.5 10.1667,23.5 7.5,23.5C 7.5,20.8333 7.5,18.1667 7.5,15.5 Z"/></g>
<g><path style="opacity:1" fill="#a9a8aa" d="M 15.5,15.5 C 18.1667,15.5 20.8333,15.5 23.5,15.5C 23.5,18.1667 23.5,20.8333 23.5,23.5C 20.8333,23.5 18.1667,23.5 15.5,23.5C 15.5,20.8333 15.5,18.1667 15.5,15.5 Z"/></g>
<g><path style="opacity:1" fill="#d1cfd2" d="M 23.5,15.5 C 26.1667,15.5 28.8333,15.5 31.5,15.5C 31.5,18.1667 31.5,20.8333 31.5,23.5C 28.8333,23.5 26.1667,23.5 23.5,23.5C 23.5,20.8333 23.5,18.1667 23.5,15.5 Z"/></g>
<g><path style="opacity:1" fill="#a9a8aa" d="M 31.5,15.5 C 34.1667,15.5 36.8333,15.5 39.5,15.5C 39.5,18.1667 39.5,20.8333 39.5,23.5C 36.8333,23.5 34.1667,23.5 31.5,23.5C 31.5,20.8333 31.5,18.1667 31.5,15.5 Z"/></g>
<g><path style="opacity:1" fill="#d1cfd2" d="M 39.5,15.5 C 42.1667,15.5 44.8333,15.5 47.5,15.5C 47.5,18.1667 47.5,20.8333 47.5,23.5C 44.8333,23.5 42.1667,23.5 39.5,23.5C 39.5,20.8333 39.5,18.1667 39.5,15.5 Z"/></g>
<g><path style="opacity:1" fill="#a9a8aa" d="M 47.5,15.5 C 50.1667,15.5 52.8333,15.5 55.5,15.5C 55.5,18.1667 55.5,20.8333 55.5,23.5C 52.8333,23.5 50.1667,23.5 47.5,23.5C 47.5,20.8333 47.5,18.1667 47.5,15.5 Z"/></g>
<g><path style="opacity:1" fill="#d1cfd2" d="M 55.5,15.5 C 58.1667,15.5 60.8333,15.5 63.5,15.5C 63.5,18.1667 63.5,20.8333 63.5,23.5C 60.8333,23.5 58.1667,23.5 55.5,23.5C 55.5,20.8333 55.5,18.1667 55.5,15.5 Z"/></g>
<g><path style="opacity:1" fill="#a9a8aa" d="M 63.5,15.5 C 66.1667,15.5 68.8333,15.5 71.5,15.5C 71.5,18.1667 71.5,20.8333 71.5,23.5C 68.8333,23.5 66.1667,23.5 63.5,23.5C 63.5,20.8333 63.5,18.1667 63.5,15.5 Z"/></g>
<g><path style="opacity:1" fill="#d1cfd2" d="M 71.5,15.5 C 74.1667,15.5 76.8333,15.5 79.5,15.5C 79.5,18.1667 79.5,20.8333 79.5,23.5C 76.8333,23.5 74.1667,23.5 71.5,23.5C 71.5,20.8333 71.5,18.1667 71.5,15.5 Z"/></g>
<g><path style="opacity:1" fill="#d1cfd2" d="M -0.5,23.5 C 2.16667,23.5 4.83333,23.5 7.5,23.5C 7.5,26.1667 7.5,28.8333 7.5,31.5C 4.83333,31.5 2.16667,31.5 -0.5,31.5C -0.5,28.8333 -0.5,26.1667 -0.5,23.5 Z"/></g>
<g><path style="opacity:1" fill="#a9a8aa" d="M 7.5,23.5 C 10.1667,23.5 12.8333,23.5 15.5,23.5C 15.5,26.1667 15.5,28.8333 15.5,31.5C 12.8333,31.5 10.1667,31.5 7.5,31.5C 7.5,28.8333 7.5,26.1667 7.5,23.5 Z"/></g>
<g><path style="opacity:1" fill="#d1cfd2" d="M 15.5,23.5 C 18.1667,23.5 20.8333,23.5 23.5,23.5C 23.5,26.1667 23.5,28.8333 23.5,31.5C 20.8333,31.5 18.1667,31.5 15.5,31.5C 15.5,28.8333 15.5,26.1667 15.5,23.5 Z"/></g>
<g><path style="opacity:1" fill="#a9a8aa" d="M 23.5,23.5 C 26.1667,23.5 28.8333,23.5 31.5,23.5C 31.5,26.1667 31.5,28.8333 31.5,31.5C 28.8333,31.5 26.1667,31.5 23.5,31.5C 23.5,28.8333 23.5,26.1667 23.5,23.5 Z"/></g>
<g><path style="opacity:1" fill="#d1cfd2" d="M 31.5,23.5 C 34.1667,23.5 36.8333,23.5 39.5,23.5C 39.5,26.1667 39.5,28.8333 39.5,31.5C 36.8333,31.5 34.1667,31.5 31.5,31.5C 31.5,28.8333 31.5,26.1667 31.5,23.5 Z"/></g>
<g><path style="opacity:1" fill="#a9a8aa" d="M 39.5,23.5 C 42.1667,23.5 44.8333,23.5 47.5,23.5C 47.5,26.1667 47.5,28.8333 47.5,31.5C 44.8333,31.5 42.1667,31.5 39.5,31.5C 39.5,28.8333 39.5,26.1667 39.5,23.5 Z"/></g>
<g><path style="opacity:1" fill="#d1cfd2" d="M 47.5,23.5 C 50.1667,23.5 52.8333,23.5 55.5,23.5C 55.5,26.1667 55.5,28.8333 55.5,31.5C 52.8333,31.5 50.1667,31.5 47.5,31.5C 47.5,28.8333 47.5,26.1667 47.5,23.5 Z"/></g>
<g><path style="opacity:1" fill="#a9a8aa" d="M 55.5,23.5 C 58.1667,23.5 60.8333,23.5 63.5,23.5C 63.5,26.1667 63.5,28.8333 63.5,31.5C 60.8333,31.5 58.1667,31.5 55.5,31.5C 55.5,28.8333 55.5,26.1667 55.5,23.5 Z"/></g>
<g><path style="opacity:1" fill="#d1cfd2" d="M 63.5,23.5 C 66.1667,23.5 68.8333,23.5 71.5,23.5C 71.5,26.1667 71.5,28.8333 71.5,31.5C 68.8333,31.5 66.1667,31.5 63.5,31.5C 63.5,28.8333 63.5,26.1667 63.5,23.5 Z"/></g>
<g><path style="opacity:1" fill="#a9a8aa" d="M 71.5,23.5 C 74.1667,23.5 76.8333,23.5 79.5,23.5C 79.5,26.1667 79.5,28.8333 79.5,31.5C 76.8333,31.5 74.1667,31.5 71.5,31.5C 71.5,28.8333 71.5,26.1667 71.5,23.5 Z"/></g>
<g><path style="opacity:1" fill="#a9a8aa" d="M -0.5,31.5 C 2.16667,31.5 4.83333,31.5 7.5,31.5C 7.5,34.1667 7.5,36.8333 7.5,39.5C 4.83333,39.5 2.16667,39.5 -0.5,39.5C -0.5,36.8333 -0.5,34.1667 -0.5,31.5 Z"/></g>
<g><path style="opacity:1" fill="#d1cfd2" d="M 7.5,31.5 C 10.1667,31.5 12.8333,31.5 15.5,31.5C 15.5,34.1667 15.5,36.8333 15.5,39.5C 12.8333,39.5 10.1667,39.5 7.5,39.5C 7.5,36.8333 7.5,34.1667 7.5,31.5 Z"/></g>
<g><path style="opacity:1" fill="#a9a8aa" d="M 15.5,31.5 C 18.1667,31.5 20.8333,31.5 23.5,31.5C 23.5,34.1667 23.5,36.8333 23.5,39.5C 20.8333,39.5 18.1667,39.5 15.5,39.5C 15.5,36.8333 15.5,34.1667 15.5,31.5 Z"/></g>
<g><path style="opacity:1" fill="#d1cfd2" d="M 23.5,31.5 C 26.1667,31.5 28.8333,31.5 31.5,31.5C 31.5,34.1667 31.5,36.8333 31.5,39.5C 28.8333,39.5 26.1667,39.5 23.5,39.5C 23.5,36.8333 23.5,34.1667 23.5,31.5 Z"/></g>
<g><path style="opacity:1" fill="#a9a8aa" d="M 31.5,31.5 C 34.1667,31.5 36.8333,31.5 39.5,31.5C 39.5,34.1667 39.5,36.8333 39.5,39.5C 36.8333,39.5 34.1667,39.5 31.5,39.5C 31.5,36.8333 31.5,34.1667 31.5,31.5 Z"/></g>
<g><path style="opacity:1" fill="#d1cfd2" d="M 39.5,31.5 C 42.1667,31.5 44.8333,31.5 47.5,31.5C 47.5,34.1667 47.5,36.8333 47.5,39.5C 44.8333,39.5 42.1667,39.5 39.5,39.5C 39.5,36.8333 39.5,34.1667 39.5,31.5 Z"/></g>
<g><path style="opacity:1" fill="#a9a8aa" d="M 47.5,31.5 C 50.1667,31.5 52.8333,31.5 55.5,31.5C 55.5,34.1667 55.5,36.8333 55.5,39.5C 52.8333,39.5 50.1667,39.5 47.5,39.5C 47.5,36.8333 47.5,34.1667 47.5,31.5 Z"/></g>
<g><path style="opacity:1" fill="#d1cfd2" d="M 55.5,31.5 C 58.1667,31.5 60.8333,31.5 63.5,31.5C 63.5,34.1667 63.5,36.8333 63.5,39.5C 60.8333,39.5 58.1667,39.5 55.5,39.5C 55.5,36.8333 55.5,34.1667 55.5,31.5 Z"/></g>
<g><path style="opacity:1" fill="#a9a8aa" d="M 63.5,31.5 C 66.1667,31.5 68.8333,31.5 71.5,31.5C 71.5,34.1667 71.5,36.8333 71.5,39.5C 68.8333,39.5 66.1667,39.5 63.5,39.5C 63.5,36.8333 63.5,34.1667 63.5,31.5 Z"/></g>
<g><path style="opacity:1" fill="#d1cfd2" d="M 71.5,31.5 C 74.1667,31.5 76.8333,31.5 79.5,31.5C 79.5,34.1667 79.5,36.8333 79.5,39.5C 76.8333,39.5 74.1667,39.5 71.5,39.5C 71.5,36.8333 71.5,34.1667 71.5,31.5 Z"/></g>
</svg>
